PathFileType	4	(X/Y/Z)	D:\Share\Shared_Data\Ergonomics\Sit To Stand Pertubation\S1\Perturbed_NoHarness.trc
DataRate	CameraRate	NumFrames	NumMarkers	Units	OrigDataRate	OrigDataStartFrame	OrigNumFrames	
100	100	9	18	m	100	2590	171
Frame#	Time	L_ASIS			R_ASIS			R_Pelvis			V_Sacral			L_Pelvis			Clavical			R_Acromium			L_Acromium			Sternum			Torso			R_Thigh_Med			R_Thigh_Lat			R_Thigh			R_Shank_Med			R_Shank_Lat			R_Shank			R_Heel			R_Toe			
		X1	Y1	Z1	X2	Y2	Z2	X3	Y3	Z3	X4	Y4	Z4	X5	Y5	Z5	X6	Y6	Z6	X7	Y7	Z7	X8	Y8	Z8	X9	Y9	Z9	X10	Y10	Z10	X11	Y11	Z11	X12	Y12	Z12	X13	Y13	Z13	X14	Y14	Z14	X15	Y15	Z15	X16	Y16	Z16	X17	Y17	Z17	X18	Y18	Z18	

2590	25.89	0.44002817	0.90862402	-0.10498763	0.33753754	0.9086416	0.12425495	0.36993677	0.88770306	0.12364997	0.24881009	0.89683661	-0.024664358	0.35263434	0.90744598	-0.17124123	0.39283728	1.2539902	-0.015457278	0.32388458	1.319424	0.1341666	0.28121237	1.2731349	-0.21870236	0.37764029	1.2650967	0.087375313	0.38850491	1.2583655	-0.075718315	0.31968414	0.41897961	0.056352703	0.3396662	0.44427441	0.17132539	0.42140234	0.6069104	0.10758265	0.32716165	0.10044151	0.098524216	0.30546143	0.099836205	0.17875264	0.3119982	0.31195639	0.19362831	0.26026474	0.032574036	0.12136617	0.46574713	0.046310028	0.14253253
2591	25.9	0.44119226	0.9085979	-0.10512091	0.3410545	0.90847699	0.123665	0.36969678	0.88718292	0.12493726	0.25003912	0.89684991	-0.024411844	0.35362549	0.90733203	-0.17110379	0.39299847	1.2539406	-0.015390265	0.32395767	1.319223	0.13424905	0.2812627	1.2727252	-0.21861127	0.37784186	1.2650332	0.087432892	0.3886449	1.2582656	-0.075664757	0.32006491	0.41900711	0.056470585	0.34009772	0.44425446	0.17144016	0.42224121	0.60672095	0.10773103	0.32715799	0.10042972	0.098499405	0.30552884	0.099843697	0.17875926	0.31227682	0.31195386	0.19371098	0.26027682	0.032588596	0.12135351	0.46577777	0.046265144	0.1425383
2592	25.91	0.44225714	0.90859045	-0.10535254	0.34487857	0.90828076	0.1229214	0.36980493	0.88678528	0.12593028	0.25121191	0.8968576	-0.024163418	0.35454562	0.90721814	-0.1709749	0.39315417	1.2538812	-0.015318346	0.32403427	1.3190192	0.13433958	0.28130606	1.2723168	-0.21851537	0.37803748	1.2649594	0.087494728	0.38877762	1.2581565	-0.075606583	0.32044577	0.41902618	0.056577816	0.34055096	0.44422861	0.17153786	0.42306812	0.60653778	0.10785017	0.32715173	0.10041352	0.09847583	0.30559918	0.099848251	0.17876881	0.31257697	0.31194757	0.19378479	0.26028696	0.032611195	0.12135338	0.46580225	0.046226757	0.14254526
2593	25.92	0.44321887	0.90859589	-0.10565707	0.34895667	0.90805139	0.12202595	0.37022028	0.88649878	0.12665752	0.25232794	0.89685699	-0.023919289	0.35539398	0.90710455	-0.17085577	0.39330566	1.2538099	-0.015245258	0.32411853	1.3188123	0.13443616	0.28134183	1.2719108	-0.21841479	0.37822986	1.2648743	0.087558022	0.38890262	1.2580392	-0.075546791	0.32081781	0.41903802	0.056676464	0.3410174	0.44419745	0.17162178	0.42387891	0.60635938	0.10794007	0.32714316	0.10039424	0.098454002	0.30567084	0.099850021	0.17878149	0.31289114	0.31193774	0.19385124	0.26029517	0.032646141	0.12136922	0.46582092	0.046194569	0.14255302
2594	25.93	0.44407675	0.90860785	-0.10600871	0.35321652	0.907789	0.12098786	0.37089224	0.88630817	0.12715504	0.25338664	0.89684619	-0.023679932	0.35617087	0.90699103	-0.17074741	0.3934545	1.2537242	-0.015175034	0.32421454	1.3186027	0.13453662	0.28136969	1.2715093	-0.21830968	0.37842151	1.2647782	0.087619942	0.38901962	1.2579146	-0.075488304	0.32117465	0.41904388	0.056767841	0.3414903	0.44416159	0.17169435	0.42467014	0.60618494	0.1080011	0.32713287	0.10037302	0.098434113	0.30574234	0.099849258	0.17879709	0.31321317	0.3119248	0.1939113	0.26030145	0.032697826	0.12140431	0.46583447	0.046168015	0.14256126
2595	25.94	0.44483322	0.90861993	-0.10638374	0.35757236	0.90749585	0.11982346	0.37176593	0.88619586	0.12746282	0.25438762	0.89682385	-0.023446119	0.35687759	0.90687787	-0.17065033	0.39360236	1.2536217	-0.015111885	0.3243262	1.3183921	0.13463879	0.2813895	1.271115	-0.21819992	0.37861499	1.264672	0.087677734	0.38912851	1.2577843	-0.075433853	0.32151291	0.41904526	0.056852612	0.3419646	0.4441218	0.17175717	0.42543906	0.60601453	0.10803419	0.32712164	0.10035082	0.098415962	0.30581277	0.099846359	0.17881503	0.31353824	0.31190933	0.19396538	0.260306	0.032770245	0.1214614	0.46584381	0.046146347	0.14256947
2596	25.95	0.4454938	0.9086261	-0.10676234	0.36193256	0.90717609	0.11855505	0.37278665	0.88614264	0.12762156	0.25533066	0.89678937	-0.023218849	0.35751657	0.90676526	-0.17056493	0.39375107	1.2535	-0.015060109	0.32445676	1.3181812	0.13474054	0.28140131	1.2707307	-0.2180856	0.3788125	1.264557	0.087728828	0.38922934	1.2576506	-0.075385902	0.32183154	0.41904346	0.056930912	0.34243671	0.44407892	0.17181125	0.42618369	0.60584863	0.10804088	0.32711044	0.10032838	0.098399193	0.30588132	0.09984169	0.17883444	0.31386279	0.31189191	0.19401357	0.26030908	0.032866447	0.1215423	0.46584976	0.046128712	0.14257722
2597	25.96	0.44606668	0.90862085	-0.10712963	0.36620886	0.90683521	0.11720874	0.37390372	0.88612958	0.12766998	0.25621582	0.89674274	-0.022999306	0.35809119	0.90665393	-0.17049121	0.39390231	1.2533561	-0.015023935	0.32460876	1.3179718	0.13483975	0.28140549	1.27036	-0.21796687	0.37901587	1.2644347	0.087770927	0.38932236	1.2575155	-0.075346596	0.32213174	0.41903964	0.057002472	0.34290396	0.44403366	0.17185719	0.42690259	0.60568811	0.10802324	0.32710016	0.10030624	0.098383209	0.30594736	0.099835648	0.1788542	0.31418436	0.31187335	0.19405574	0.26031088	0.032987946	0.12164747	0.46585333	0.04611425	0.14258417
2598	25.97	0.44656189	0.90859918	-0.10747607	0.37032556	0.90647968	0.11581179	0.37507355	0.88613837	0.12764279	0.25704355	0.89668463	-0.02278871	0.3586055	0.90654388	-0.17042894	0.3940578	1.2531881	-0.015007359	0.32478394	1.3177657	0.13493452	0.28140244	1.270006	-0.21784422	0.37922638	1.2643073	0.087802101	0.38940817	1.2573818	-0.07531765	0.32241602	0.41903479	0.057066837	0.34336481	0.44398682	0.17189523	0.42759488	0.605534	0.10798389	0.32709171	0.10028471	0.098367386	0.30601053	0.099828568	0.17887314	0.31450128	0.31185422	0.19409169	0.2603118	0.033134098	0.12177551	0.46585529	0.046102173	0.14258995
